<svg width="21" height="24" viewBox="0 0 21 24" fill="none" xmlns="http://www.w3.org/2000/svg">
<path d="M10.0625 21.75C5.11875 21.75 1.09375 17.15 1.09375 11.5C1.09375 5.85 5.11875 1.25 10.0625 1.25C15.0063 1.25 19.0312 5.85 19.0312 11.5C19.0312 17.15 15.0063 21.75 10.0625 21.75ZM10.0625 2.75C5.83625 2.75 2.40625 6.68 2.40625 11.5C2.40625 16.32 5.83625 20.25 10.0625 20.25C14.2887 20.25 17.7188 16.32 17.7188 11.5C17.7188 6.68 14.2887 2.75 10.0625 2.75Z" fill="white"/>
<path d="M19.25 22.75C19.0838 22.75 18.9175 22.68 18.7863 22.53L17.0363 20.53C16.7825 20.24 16.7825 19.76 17.0363 19.47C17.29 19.18 17.71 19.18 17.9638 19.47L19.7138 21.47C19.9675 21.76 19.9675 22.24 19.7138 22.53C19.5825 22.68 19.4163 22.75 19.25 22.75Z" fill="white"/>
</svg>
